Coordinates
datacolumns 6
datarows 138
range 0 1.37
inDegrees=yes
Units are S.I. units (second, meters, Newtons, ...)
If the header above contains a line with 'inDegrees', this indicates whether rotational values are in degrees (yes) or radians (no).
endheader
time	foot_tx	hip_flexion_r	knee_angle_r	ankle_angle_r	lumbar
0	0.22489707	64.42578352	-79.80106317	-1.50129578	-27.96466032
0.01	0.2248847	64.45242455	-79.77929758	-1.51916857	-27.99770799
0.02	0.22487552	64.48234024	-79.75430147	-1.53966598	-28.04033854
0.03	0.22485379	64.46485818	-79.72662432	-1.55661702	-28.1493809
0.04	0.22484395	64.51326591	-79.69763554	-1.58151201	-28.20148037
0.05	0.22482852	64.52415094	-79.66531597	-1.60410578	-28.30959066
0.06	0.22481804	64.58632293	-79.6327315	-1.63198201	-28.37799256
0.07	0.22480187	64.59802661	-79.59792382	-1.65587444	-28.51950404
0.08	0.22479017	64.64415337	-79.56348699	-1.68314311	-28.64220225
0.09	0.22477902	64.73121603	-79.53057916	-1.71352701	-28.73966643
0.1	0.22475655	64.74014771	-79.49776671	-1.73547847	-28.94291756
0.11	0.22473379	64.78389083	-79.46678921	-1.75922235	-29.12829121
0.12	0.22471095	64.82791913	-79.43630032	-1.78215198	-29.33481602
0.13	0.22468346	64.8728261	-79.40635028	-1.80435573	-29.56374715
0.14	0.22465043	64.92318492	-79.37680564	-1.8266987	-29.81220087
0.15	0.22461695	64.98571124	-79.34760149	-1.8503882	-30.07459582
0.16	0.22458171	65.06003017	-79.31898701	-1.87520583	-30.352525
0.17	0.22454494	65.14375853	-79.2908471	-1.90068205	-30.6490174
0.18	0.22450494	65.22901297	-79.26273138	-1.92555952	-30.97234483
0.19	0.22446334	65.31028679	-79.23379785	-1.94913833	-31.32789833
0.2	0.22442079	65.3835276	-79.20327605	-1.97092726	-31.719732
0.21	0.22437631	65.44577485	-79.17072591	-1.99045654	-32.15093765
0.22	0.22433194	65.5018304	-79.13617414	-2.00818463	-32.61654702
0.23	0.2242866	65.5527625	-79.09972395	-2.0241871	-33.11585809
0.24	0.22424024	65.607321	-79.06140486	-2.03972562	-33.64042346
0.25	0.22419437	65.67391054	-79.02127509	-2.05613498	-34.18205254
0.26	0.22414808	65.76005805	-78.97974671	-2.07421403	-34.733146
0.27	0.22410489	65.86959672	-78.93696709	-2.09448233	-35.28928378
0.28	0.22406245	66.00508958	-78.89319016	-2.11664476	-35.84679019
0.29	0.22402325	66.16652915	-78.84843146	-2.14030173	-36.404173
0.3	0.22398617	66.35332312	-78.80334311	-2.16428089	-36.96023662
0.31	0.2239499	66.56460493	-78.75894679	-2.18709125	-37.51395038
0.32	0.22391523	66.80212966	-78.71683897	-2.2072852	-38.06137477
0.33	0.22387912	67.06630557	-78.678208	-2.2233718	-38.60047488
0.34	0.22384596	67.35966849	-78.64261961	-2.23554886	-39.12750451
0.35	0.2238092	67.68291074	-78.6122021	-2.24192953	-39.64095717
0.36	0.22377935	68.03392906	-78.58212402	-2.24540874	-40.1438617
0.37	0.2237369	68.41459787	-78.55727801	-2.24221473	-40.63417438
0.38	0.2236885	68.8199921	-78.53557894	-2.23345428	-41.11797684
0.39	0.22364881	69.24462655	-78.50999454	-2.22340127	-41.60288598
0.4	0.22361485	69.71650709	-78.48196317	-2.2140622	-42.0594565
0.41	0.22357891	70.14632026	-78.45128702	-2.19597825	-42.58438487
0.42	0.22355796	70.64772395	-78.41844375	-2.18165692	-43.05585624
0.43	0.22354654	71.16245216	-78.38265689	-2.16482558	-43.53671428
0.44	0.2235562	71.69644302	-78.34371493	-2.14644032	-44.01957234
0.45	0.22358169	72.32136137	-78.30504222	-2.13109436	-44.4264402
0.46	0.22363469	72.98647971	-78.26469672	-2.11448907	-44.80988255
0.47	0.22371215	73.7078087	-78.22586683	-2.09547854	-45.14982567
0.48	0.22379895	74.49535183	-78.18948328	-2.0726744	-45.43480517
0.49	0.22389695	75.34248005	-78.15779061	-2.04306509	-45.66732269
0.5	0.22399719	76.25232045	-78.12963475	-2.00567102	-45.8420456
0.51	0.22406929	77.21146141	-78.11175874	-1.95235108	-45.96936847
0.52	0.22413134	78.22029458	-78.09823493	-1.88608247	-46.04580852
0.53	0.22417536	79.27990001	-78.09171865	-1.80435191	-46.06670601
0.54	0.22420447	80.38963178	-78.09193215	-1.70726875	-46.03008293
0.55	0.22421235	81.55804722	-78.10276604	-1.59311426	-45.92255544
0.56	0.22420445	82.78261453	-78.12265103	-1.46218563	-45.74242623
0.57	0.22417076	84.06882796	-78.15270018	-1.31245153	-45.47665124
0.58	0.22410309	85.41309771	-78.19209109	-1.14172553	-45.12169298
0.59	0.22399167	86.80649794	-78.24087802	-0.94693232	-44.68019504
0.6	0.22383442	88.23756966	-78.29787345	-0.72612055	-44.15860214
0.61	0.22363097	89.69214343	-78.36299669	-0.47684211	-43.5671604
0.62	0.22339394	91.15250843	-78.43362383	-0.19872915	-42.92118421
0.63	0.22313374	92.59387423	-78.51172296	0.11060272	-42.24582298
0.64	0.22287563	94.00465709	-78.59334264	0.44855136	-41.54963891
0.65	0.22264637	95.36147378	-78.67925289	0.81466916	-40.85600763
0.66	0.22247335	96.64609168	-78.76804659	1.20633381	-40.18108768
0.67	0.22238215	97.84130171	-78.8592256	1.62059254	-39.53923395
0.68	0.22238986	98.93301685	-78.95208004	2.05400298	-38.94006283
0.69	0.22249878	99.9069711	-79.04766982	2.50429806	-38.3928744
0.7	0.22270047	100.7453555	-79.14830878	2.97061969	-37.91183271
0.71	0.22296697	101.4331117	-79.25820174	3.45368159	-37.50730836
0.72	0.22327434	101.9488989	-79.38284571	3.95531372	-37.20001263
0.73	0.22360427	102.2843661	-79.52400267	4.47427213	-36.99632497
0.74	0.22395414	102.4338614	-79.68036362	5.00762933	-36.90119764
0.75	0.22432649	102.4008129	-79.8470781	5.55086584	-36.90990827
0.76	0.22472528	102.1966154	-80.01726263	6.09920676	-37.00847219
0.77	0.22515552	101.8416736	-80.18155214	6.64677074	-37.17445002
0.78	0.22561442	101.3590645	-80.33136034	7.18929219	-37.3831447
0.79	0.22609877	100.7706216	-80.45669392	7.72261061	-37.6121163
0.8	0.22660014	100.0925966	-80.54581964	8.2427072	-37.84475774
0.81	0.2271073	99.33585728	-80.5870914	8.7464076	-38.07131977
0.82	0.22760953	98.51393607	-80.57031284	9.23010407	-38.27803771
0.83	0.22809743	97.63896947	-80.48550293	9.68913962	-38.45516025
0.84	0.22856119	96.71536428	-80.32590771	10.12060354	-38.60416276
0.85	0.22899769	95.7545786	-80.08675597	10.52014238	-38.71875173
0.86	0.22940075	94.77051353	-79.76546109	10.88389052	-38.79160035
0.87	0.22977223	93.76658737	-79.36280372	11.20984663	-38.82675474
0.88	0.23011038	92.75006485	-78.88077998	11.49643142	-38.82367919
0.89	0.23041408	91.72725614	-78.3222163	11.74281666	-38.78142968
0.9	0.23068701	90.69582381	-77.69209212	11.95018575	-38.70550918
0.91	0.23093079	89.65929728	-76.99475599	12.11932944	-38.59334721
0.92	0.23115104	88.61673003	-76.23573396	12.25225331	-38.44596153
0.93	0.23135216	87.5665879	-75.42064207	12.35133752	-38.26479857
0.94	0.23153694	86.50493688	-74.5550663	12.41969674	-38.05355787
0.95	0.23170847	85.42858575	-73.64374058	12.4599714	-37.8155028
0.96	0.2318644	84.33085392	-72.69179306	12.47585698	-37.55797247
0.97	0.23201551	83.21598359	-71.70305747	12.46828719	-37.27613411
0.98	0.23214894	82.07471639	-70.68385101	12.4427724	-36.98159103
0.99	0.23227828	80.90776872	-69.63592523	12.39902119	-36.67429487
1	0.23239755	79.71168485	-68.56334232	12.34014859	-36.36047273
1.01	0.23250417	78.48326519	-67.46893852	12.26818547	-36.04503274
1.02	0.23260827	77.22040488	-66.35515551	12.18410655	-35.73133149
1.03	0.23270896	75.92284853	-65.22433424	12.08932307	-35.4216478
1.04	0.23281383	74.59861435	-64.07880284	11.98391291	-35.10812696
1.05	0.23292727	73.24941392	-62.9217561	11.86929714	-34.79036474
1.06	0.23305234	71.87998789	-61.75480013	11.74587653	-34.46435915
1.07	0.23318872	70.49021913	-60.57852488	11.61429233	-34.1313298
1.08	0.23333401	69.07782105	-59.39261927	11.47512684	-33.79463172
1.09	0.23348514	67.63896994	-58.19634104	11.32897507	-33.45899063
1.1	0.2336408	66.17382412	-56.98881718	11.17587937	-33.12442877
1.11	0.23380127	64.68042079	-55.76971217	11.01619937	-32.79367998
1.12	0.23396756	63.1630741	-54.53854842	10.84949623	-32.46268841
1.13	0.23414052	61.62338492	-53.29432229	10.67525768	-32.13080696
1.14	0.23432029	60.06325356	-52.03554346	10.49263853	-31.79722699
1.15	0.23450722	58.48403239	-50.76061391	10.30064944	-31.46185158
1.16	0.23470011	56.88788105	-49.46843967	10.09846372	-31.12387023
1.17	0.23489894	55.27188165	-48.1581932	9.88567585	-30.78791466
1.18	0.23510136	53.64036701	-46.82985013	9.66163498	-30.45077925
1.19	0.23530299	51.99372736	-45.48420941	9.42663352	-30.11375688
1.2	0.23549809	50.33020626	-44.12254485	9.18163802	-29.78011308
1.21	0.23567809	48.66732901	-42.74554936	8.9260148	-29.43209749
1.22	0.23583986	46.99827374	-41.35592681	8.66210301	-29.07847661
1.23	0.23598094	45.33633797	-39.95569872	8.39020029	-28.70632561
1.24	0.23610422	43.69004195	-38.54710879	8.11084193	-28.30791683
1.25	0.2362123	42.06139388	-37.13260652	7.82516172	-27.88326447
1.26	0.23630779	40.45973186	-35.71564486	7.5339373	-27.42496634
1.27	0.23639254	38.89050279	-34.30005355	7.23793748	-26.9317344
1.28	0.23646613	37.3636367	-32.89099385	6.93860962	-26.3954516
1.29	0.23653053	35.89522408	-31.49331015	6.63555576	-25.80653652
1.3	0.23657917	34.4865026	-30.11409049	6.33219137	-25.17009432
1.31	0.23660653	33.14030089	-28.7597958	6.03187375	-24.48794532
1.32	0.23661363	31.86318128	-27.43422712	5.7364908	-23.7551649
1.33	0.23659488	30.64197377	-26.14100881	5.45049292	-22.98666893
1.34	0.23654262	29.4657008	-24.88546848	5.17903704	-22.19597932
1.35	0.23647056	28.33540887	-23.66576622	4.9202427	-21.38409756
1.36	0.2363738	27.24884673	-22.48938932	4.67818732	-20.56031896
1.37	0.23626166	26.20732245	-21.35892285	4.4529708	-19.72942709
